<?xml version="1.0" standalone="no"?>
<!DOCTYPE svg PUBLIC "-//W3C//DTD SVG 20010904//EN"
 "http://www.w3.org/TR/2001/REC-SVG-20010904/DTD/svg10.dtd">
<svg version="1.0" xmlns="http://www.w3.org/2000/svg" viewBox="0 0 364.000000 363.000000"
 preserveAspectRatio="xMidYMid meet">
<g transform="translate(0.000000,363.000000) scale(0.100000,-0.100000)"
fill="#000000" stroke="none">
<path d="M1795 3414 c-70 -7 -237 -44 -320 -71 -117 -37 -306 -133 -415 -210
-186 -133 -386 -358 -495 -558 -40 -73 -115 -253 -115 -276 0 -5 616 -9 1540
-9 847 0 1540 2 1540 5 0 3 -16 47 -35 97 -85 220 -209 402 -396 583 -229 221
-472 351 -779 415 -83 18 -145 23 -295 25 -104 2 -208 1 -230 -1z"/>
<path d="M396 2053 c-3 -21 -8 -62 -12 -90 l-6 -53 1612 0 1612 0 -6 28 c-3
15 -8 55 -11 90 l-7 62 -1588 0 -1588 0 -6 -37z"/>
<path d="M384 1668 c4 -29 9 -70 12 -90 l6 -38 1588 0 1588 0 7 63 c3 34 8 74
11 90 l6 27 -1612 0 -1612 0 6 -52z"/>
<path d="M450 1339 c0 -21 56 -163 95 -240 179 -354 526 -666 883 -793 434
-155 932 -121 1317 89 251 136 502 380 647 629 42 70 121 248 133 296 l6 25
-1541 0 c-847 0 -1540 -3 -1540 -6z"/>
</g>
</svg>
